<svg width="58" height="53" viewBox="0 0 58 53" fill="none" xmlns="http://www.w3.org/2000/svg">
<path d="M54.2298 1L32.3535 17.1869L36.4216 7.64743L54.2298 1Z" fill="#E17726" stroke="#E17726" stroke-width="0.25" stroke-linecap="round" stroke-linejoin="round"/>
<path d="M3.76953 1L25.451 17.338L21.5778 7.64742L3.76953 1Z" fill="#E27625" stroke="#E27625" stroke-width="0.25" stroke-linecap="round" stroke-linejoin="round"/>
<path d="M46.3529 38.5317L40.5322 47.4238L52.9958 50.8554L56.5662 38.7261L46.3529 38.5317Z" fill="#E27625" stroke="#E27625" stroke-width="0.25" stroke-linecap="round" stroke-linejoin="round"/>
<path d="M1.4541 38.7261L5.00275 50.8554L17.4448 47.4238L11.6457 38.5317L1.4541 38.7261Z" fill="#E27625" stroke="#E27625" stroke-width="0.25" stroke-linecap="round" stroke-linejoin="round"/>
<path d="M16.7746 23.5108L13.3125 28.7338L25.6463 29.295L25.2352 16.0217L16.7746 23.5108Z" fill="#E27625" stroke="#E27625" stroke-width="0.25" stroke-linecap="round" stroke-linejoin="round"/>
<path d="M41.2251 23.5108L32.6348 15.8706L32.3535 29.295L44.6872 28.7338L41.2251 23.5108Z" fill="#E27625" stroke="#E27625" stroke-width="0.25" stroke-linecap="round" stroke-linejoin="round"/>
<path d="M17.4453 47.4236L24.9104 43.8194L18.484 38.8123L17.4453 47.4236Z" fill="#E27625" stroke="#E27625" stroke-width="0.25" stroke-linecap="round" stroke-linejoin="round"/>
<path d="M33.0898 43.8194L40.5333 47.4236L39.5163 38.8123L33.0898 43.8194Z" fill="#E27625" stroke="#E27625" stroke-width="0.25" stroke-linecap="round" stroke-linejoin="round"/>
<path d="M40.5333 47.425L33.0898 43.8208L33.6956 48.6552L33.6307 50.7056L40.5333 47.425Z" fill="#D5BFB2" stroke="#D5BFB2" stroke-width="0.25" stroke-linecap="round" stroke-linejoin="round"/>
<path d="M17.4453 47.425L24.3696 50.7056L24.3263 48.6552L24.9104 43.8208L17.4453 47.425Z" fill="#D5BFB2" stroke="#D5BFB2" stroke-width="0.25" stroke-linecap="round" stroke-linejoin="round"/>
<path d="M24.4981 35.6184L18.3096 33.8056L22.6805 31.7983L24.4981 35.6184Z" fill="#233447" stroke="#233447" stroke-width="0.25" stroke-linecap="round" stroke-linejoin="round"/>
<path d="M33.501 35.6184L35.3187 31.7983L39.7112 33.8056L33.501 35.6184Z" fill="#233447" stroke="#233447" stroke-width="0.25" stroke-linecap="round" stroke-linejoin="round"/>
<path d="M17.4455 47.4238L18.5275 38.5317L11.6465 38.7261L17.4455 47.4238Z" fill="#CC6228" stroke="#CC6228" stroke-width="0.25" stroke-linecap="round" stroke-linejoin="round"/>
<path d="M39.4727 38.5317L40.533 47.4238L46.3536 38.7261L39.4727 38.5317Z" fill="#CC6228" stroke="#CC6228" stroke-width="0.25" stroke-linecap="round" stroke-linejoin="round"/>
<path d="M44.6872 28.7332L32.3535 29.2943L33.5003 35.6181L35.318 31.7979L39.7105 33.8051L44.6872 28.7332Z" fill="#CC6228" stroke="#CC6228" stroke-width="0.25" stroke-linecap="round" stroke-linejoin="round"/>
<path d="M18.3109 33.8051L22.6818 31.7979L24.4995 35.6181L25.6463 29.2943L13.3125 28.7332L18.3109 33.8051Z" fill="#CC6228" stroke="#CC6228" stroke-width="0.25" stroke-linecap="round" stroke-linejoin="round"/>
<path d="M13.3125 28.7332L18.4841 38.8123L18.3108 33.8051L13.3125 28.7332Z" fill="#E27525" stroke="#E27525" stroke-width="0.25" stroke-linecap="round" stroke-linejoin="round"/>
<path d="M39.7103 33.8051L39.5156 38.8123L44.6872 28.7332L39.7103 33.8051Z" fill="#E27525" stroke="#E27525" stroke-width="0.25" stroke-linecap="round" stroke-linejoin="round"/>
<path d="M25.646 29.2942L24.499 35.618L25.9488 43.0854L26.2734 33.2439L25.646 29.2942Z" fill="#E27525" stroke="#E27525" stroke-width="0.25" stroke-linecap="round" stroke-linejoin="round"/>
<path d="M32.354 29.2942L31.748 33.2224L32.051 43.0854L33.5008 35.618L32.354 29.2942Z" fill="#E27525" stroke="#E27525" stroke-width="0.25" stroke-linecap="round" stroke-linejoin="round"/>
<path d="M33.4996 35.6182L32.0498 43.0856L33.0885 43.8195L39.5151 38.8123L39.7098 33.8052L33.4996 35.6182Z" fill="#F5841F" stroke="#F5841F" stroke-width="0.25" stroke-linecap="round" stroke-linejoin="round"/>
<path d="M18.3096 33.8052L18.4828 38.8123L24.9092 43.8195L25.9479 43.0856L24.4981 35.6182L18.3096 33.8052Z" fill="#F5841F" stroke="#F5841F" stroke-width="0.25" stroke-linecap="round" stroke-linejoin="round"/>
<path d="M33.6307 50.7049L33.6955 48.6545L33.133 48.1797H24.8673L24.3263 48.6545L24.3696 50.7049L17.4453 47.4243L19.8688 49.4099L24.7807 52.7984H33.1978L38.1314 49.4099L40.5332 47.4243L33.6307 50.7049Z" fill="#C0AC9D" stroke="#C0AC9D" stroke-width="0.25" stroke-linecap="round" stroke-linejoin="round"/>
<path d="M33.0886 43.8196L32.05 43.0859H25.948L24.9095 43.8196L24.3252 48.6542L24.8662 48.1794H33.1319L33.6946 48.6542L33.0886 43.8196Z" fill="#161616" stroke="#161616" stroke-width="0.25" stroke-linecap="round" stroke-linejoin="round"/>
<path d="M55.1607 18.2444L57 9.30928L54.2303 1L33.0898 16.6474L41.2257 23.5106L52.7156 26.8559L55.2473 23.8991L54.1438 23.1005L55.8964 21.5035L54.5549 20.4675L56.3076 19.1293L55.1607 18.2444Z" fill="#763E1A" stroke="#763E1A" stroke-width="0.25" stroke-linecap="round" stroke-linejoin="round"/>
<path d="M1 9.30928L2.86089 18.2444L1.67079 19.1293L3.44512 20.4675L2.10355 21.5035L3.85624 23.1005L2.75269 23.8991L5.28437 26.8559L16.7743 23.5106L24.9102 16.6474L3.76969 1L1 9.30928Z" fill="#763E1A" stroke="#763E1A" stroke-width="0.25" stroke-linecap="round" stroke-linejoin="round"/>
<path d="M52.7149 26.8567L41.225 23.5115L44.6872 28.7345L39.5156 38.8134L46.3533 38.7272H56.5665L52.7149 26.8567Z" fill="#F5841F" stroke="#F5841F" stroke-width="0.25" stroke-linecap="round" stroke-linejoin="round"/>
<path d="M16.7739 23.5115L5.28405 26.8567L1.4541 38.7272H11.6457L18.4833 38.8134L13.3118 28.7345L16.7739 23.5115Z" fill="#F5841F" stroke="#F5841F" stroke-width="0.25" stroke-linecap="round" stroke-linejoin="round"/>
<path d="M32.354 29.2955L33.0897 16.648L36.4219 7.64819H21.5781L24.9103 16.648L25.646 29.2955L25.9274 33.2667L25.949 43.0868H32.051L32.0726 33.2667L32.354 29.2955Z" fill="#F5841F" stroke="#F5841F" stroke-width="0.25" stroke-linecap="round" stroke-linejoin="round"/>
</svg>
